<svg xmlns="http://www.w3.org/2000/svg" viewBox="0 0 35 35"><defs><style>.cls-1{fill:#231f20;}</style></defs><g id="Artwork_glyph" data-name="Artwork glyph"><path class="cls-1" d="M9.64,22.62a4.44,4.44,0,0,1,.95-2.84,6.13,6.13,0,0,1,2.62-1.85,10.67,10.67,0,0,1,3.87-.65,19.34,19.34,0,0,1,2.67.2,12.57,12.57,0,0,1,2.47.61V16.61a4.74,4.74,0,0,0-1.32-3.53,5,5,0,0,0-3.65-1.31,7.92,7.92,0,0,0-2.79.52,14.43,14.43,0,0,0-2.86,1.54l-.88-1.62a14.69,14.69,0,0,1,3.38-1.77,9.87,9.87,0,0,1,3.38-.6,7,7,0,0,1,5.14,1.85,6.81,6.81,0,0,1,1.89,5.11v8.09a1,1,0,0,0,.21.69,1,1,0,0,0,.64.25v1.83l-.64.06a.92.92,0,0,1-.41,0A1.68,1.68,0,0,1,23,27.18a1.82,1.82,0,0,1-.48-1.08l0-1.28a7.83,7.83,0,0,1-3.08,2.35,9.52,9.52,0,0,1-3.85.82,6.46,6.46,0,0,1-3.06-.72,5.43,5.43,0,0,1-2.13-1.95A5,5,0,0,1,9.64,22.62ZM21.44,24a4,4,0,0,0,.57-.91,1.79,1.79,0,0,0,.21-.77V19.74a14.84,14.84,0,0,0-2.39-.67,13,13,0,0,0-2.48-.24,7.28,7.28,0,0,0-4,1,3,3,0,0,0-1.52,2.64,3.51,3.51,0,0,0,.51,1.83,3.78,3.78,0,0,0,1.48,1.4,4.61,4.61,0,0,0,2.3.56,7.6,7.6,0,0,0,3.09-.64A5.56,5.56,0,0,0,21.44,24Z"/></g></svg>